<mxfile host="app.diagrams.net" agent="Mozilla/5.0 (Windows NT 10.0; Win64; x64) AppleWebKit/537.36 (KHTML, like Gecko) Chrome/141.0.0.0 Safari/537.36" version="28.2.7">
  <diagram name="Página-1" id="ybqcefepQFa1MhyFagB6">
    <mxGraphModel dx="1426" dy="777" grid="1" gridSize="10" guides="1" tooltips="1" connect="1" arrows="1" fold="1" page="1" pageScale="1" pageWidth="827" pageHeight="1169" math="0" shadow="0">
      <root>
        <mxCell id="0" />
        <mxCell id="1" parent="0" />
        <mxCell id="MA3GYfuXH1vX53NOgJ_1-2" value="Gerente&lt;div&gt;&lt;br&gt;&lt;/div&gt;" style="shape=umlActor;verticalLabelPosition=bottom;verticalAlign=top;html=1;outlineConnect=0;" vertex="1" parent="1">
          <mxGeometry x="30" y="195" width="90" height="160" as="geometry" />
        </mxCell>
        <mxCell id="MA3GYfuXH1vX53NOgJ_1-5" value="" style="whiteSpace=wrap;html=1;aspect=fixed;" vertex="1" parent="1">
          <mxGeometry x="234" y="90" width="460" height="460" as="geometry" />
        </mxCell>
        <mxCell id="MA3GYfuXH1vX53NOgJ_1-6" value="&lt;font style=&quot;font-size: 24px;&quot;&gt;Sistema&lt;/font&gt;" style="text;html=1;whiteSpace=wrap;strokeColor=none;fillColor=none;align=center;verticalAlign=middle;rounded=0;" vertex="1" parent="1">
          <mxGeometry x="434" y="100" width="60" height="30" as="geometry" />
        </mxCell>
        <mxCell id="MA3GYfuXH1vX53NOgJ_1-9" value="Gerenciar Espaco" style="ellipse;whiteSpace=wrap;html=1;align=center;" vertex="1" parent="1">
          <mxGeometry x="394" y="140" width="140" height="70" as="geometry" />
        </mxCell>
        <mxCell id="MA3GYfuXH1vX53NOgJ_1-10" value="Gerenciar Produtos" style="ellipse;whiteSpace=wrap;html=1;align=center;" vertex="1" parent="1">
          <mxGeometry x="394" y="240" width="140" height="70" as="geometry" />
        </mxCell>
        <mxCell id="MA3GYfuXH1vX53NOgJ_1-11" value="Visualizar estoque" style="ellipse;whiteSpace=wrap;html=1;align=center;" vertex="1" parent="1">
          <mxGeometry x="394" y="340" width="140" height="70" as="geometry" />
        </mxCell>
        <mxCell id="MA3GYfuXH1vX53NOgJ_1-12" value="Gerar relatório" style="ellipse;whiteSpace=wrap;html=1;align=center;" vertex="1" parent="1">
          <mxGeometry x="394" y="430" width="140" height="70" as="geometry" />
        </mxCell>
        <mxCell id="MA3GYfuXH1vX53NOgJ_1-13" value="" style="endArrow=none;html=1;rounded=0;entryX=0;entryY=0.5;entryDx=0;entryDy=0;" edge="1" parent="1" source="MA3GYfuXH1vX53NOgJ_1-2" target="MA3GYfuXH1vX53NOgJ_1-9">
          <mxGeometry width="50" height="50" relative="1" as="geometry">
            <mxPoint x="390" y="400" as="sourcePoint" />
            <mxPoint x="200" y="220" as="targetPoint" />
          </mxGeometry>
        </mxCell>
        <mxCell id="MA3GYfuXH1vX53NOgJ_1-15" value="" style="endArrow=none;html=1;rounded=0;entryX=0;entryY=0.5;entryDx=0;entryDy=0;" edge="1" parent="1" source="MA3GYfuXH1vX53NOgJ_1-2" target="MA3GYfuXH1vX53NOgJ_1-10">
          <mxGeometry width="50" height="50" relative="1" as="geometry">
            <mxPoint x="190" y="316" as="sourcePoint" />
            <mxPoint x="464" y="230" as="targetPoint" />
          </mxGeometry>
        </mxCell>
        <mxCell id="MA3GYfuXH1vX53NOgJ_1-16" value="" style="endArrow=none;html=1;rounded=0;entryX=0;entryY=0.5;entryDx=0;entryDy=0;" edge="1" parent="1" source="MA3GYfuXH1vX53NOgJ_1-2" target="MA3GYfuXH1vX53NOgJ_1-11">
          <mxGeometry width="50" height="50" relative="1" as="geometry">
            <mxPoint x="190" y="436" as="sourcePoint" />
            <mxPoint x="464" y="350" as="targetPoint" />
          </mxGeometry>
        </mxCell>
        <mxCell id="MA3GYfuXH1vX53NOgJ_1-17" value="" style="endArrow=none;html=1;rounded=0;entryX=0;entryY=0.5;entryDx=0;entryDy=0;" edge="1" parent="1" source="MA3GYfuXH1vX53NOgJ_1-2" target="MA3GYfuXH1vX53NOgJ_1-12">
          <mxGeometry width="50" height="50" relative="1" as="geometry">
            <mxPoint x="260" y="596" as="sourcePoint" />
            <mxPoint x="534" y="510" as="targetPoint" />
          </mxGeometry>
        </mxCell>
      </root>
    </mxGraphModel>
  </diagram>
</mxfile>
